<svg width="24" height="24" viewBox="0 0 24 24" fill="none" xmlns="http://www.w3.org/2000/svg">
<g id="Frame">
<g id="SVGRepo_iconCarrier">
<g id="cc">
<path id="Vector" d="M10.5 17.25H4.5C3.90326 17.25 3.33097 17.0129 2.90901 16.591C2.48705 16.169 2.25 15.5967 2.25 15V9.75C2.25 9.15326 2.48705 8.58097 2.90901 8.15901C3.33097 7.73705 3.90326 7.5 4.5 7.5H10.5C10.6989 7.5 10.8897 7.57902 11.0303 7.71967C11.171 7.86032 11.25 8.05109 11.25 8.25C11.25 8.44891 11.171 8.63968 11.0303 8.78033C10.8897 8.92098 10.6989 9 10.5 9H4.5C4.30109 9 4.11032 9.07902 3.96967 9.21967C3.82902 9.36032 3.75 9.55109 3.75 9.75V15C3.75 15.1989 3.82902 15.3897 3.96967 15.5303C4.11032 15.671 4.30109 15.75 4.5 15.75H10.5C10.6989 15.75 10.8897 15.829 11.0303 15.9697C11.171 16.1103 11.25 16.3011 11.25 16.5C11.25 16.6989 11.171 16.8897 11.0303 17.0303C10.8897 17.171 10.6989 17.25 10.5 17.25Z" fill="#4C4D4F"/>
<path id="Vector_2" d="M21 17.25H15C14.4033 17.25 13.831 17.0129 13.409 16.591C12.9871 16.169 12.75 15.5967 12.75 15V9.75C12.75 9.15326 12.9871 8.58097 13.409 8.15901C13.831 7.73705 14.4033 7.5 15 7.5H21C21.1989 7.5 21.3897 7.57902 21.5303 7.71967C21.671 7.86032 21.75 8.05109 21.75 8.25C21.75 8.44891 21.671 8.63968 21.5303 8.78033C21.3897 8.92098 21.1989 9 21 9H15C14.8011 9 14.6103 9.07902 14.4697 9.21967C14.329 9.36032 14.25 9.55109 14.25 9.75V15C14.25 15.1989 14.329 15.3897 14.4697 15.5303C14.6103 15.671 14.8011 15.75 15 15.75H21C21.1989 15.75 21.3897 15.829 21.5303 15.9697C21.671 16.1103 21.75 16.3011 21.75 16.5C21.75 16.6989 21.671 16.8897 21.5303 17.0303C21.3897 17.171 21.1989 17.25 21 17.25Z" fill="#4C4D4F"/>
</g>
</g>
</g>
</svg>
