<svg width="19" height="19" viewBox="0 0 19 19" fill="none" xmlns="http://www.w3.org/2000/svg">
<path d="M11.4664 4.23584C12.2566 4.39 12.9827 4.77643 13.552 5.34568C14.1212 5.91493 14.5076 6.64109 14.6618 7.43123M11.4664 1C13.108 1.18237 14.6388 1.9175 15.8075 3.08469C16.9761 4.25189 17.7132 5.78177 17.8976 7.42314M17.0887 13.8786V16.3055C17.0896 16.5308 17.0434 16.7538 16.9532 16.9602C16.8629 17.1667 16.7306 17.352 16.5645 17.5043C16.3985 17.6566 16.2025 17.7725 15.9891 17.8447C15.7757 17.9169 15.5495 17.9437 15.3251 17.9234C12.8358 17.653 10.4447 16.8023 8.34383 15.4399C6.38924 14.1979 4.7321 12.5408 3.49007 10.5862C2.12291 8.47576 1.2721 6.07298 1.00657 3.57249C0.986351 3.34879 1.01294 3.12332 1.08463 2.91046C1.15633 2.69759 1.27156 2.50199 1.42299 2.33609C1.57442 2.1702 1.75874 2.03766 1.9642 1.9469C2.16967 1.85615 2.39178 1.80917 2.6164 1.80896H5.04327C5.43587 1.8051 5.81647 1.94412 6.11414 2.20012C6.41182 2.45612 6.60625 2.81162 6.66119 3.20037C6.76363 3.97702 6.95359 4.7396 7.22746 5.47355C7.3363 5.76309 7.35986 6.07777 7.29534 6.38029C7.23082 6.68282 7.08093 6.9605 6.86343 7.18045L5.83605 8.20783C6.98765 10.2331 8.66454 11.91 10.6898 13.0616L11.7172 12.0342C11.9371 11.8167 12.2148 11.6668 12.5173 11.6023C12.8199 11.5378 13.1345 11.5613 13.4241 11.6702C14.158 11.944 14.9206 12.134 15.6973 12.2364C16.0902 12.2919 16.4491 12.4898 16.7057 12.7926C16.9622 13.0954 17.0985 13.4819 17.0887 13.8786Z" stroke="#4C4D4F" stroke-linecap="round" stroke-linejoin="round"/>
</svg>
