<svg width="33" height="34" viewBox="0 0 33 34" fill="none" xmlns="http://www.w3.org/2000/svg">
<rect x="0.5" y="0.5" width="32" height="33" rx="4.5" fill="white"/>
<path d="M9.25 12.25H23.75C23.9489 12.25 24.1397 12.329 24.2803 12.4697C24.421 12.6103 24.5 12.8011 24.5 13C24.5 13.1989 24.421 13.3897 24.2803 13.5303C24.1397 13.671 23.9489 13.75 23.75 13.75H9.25C9.05109 13.75 8.86032 13.671 8.71967 13.5303C8.57902 13.3897 8.5 13.1989 8.5 13C8.5 12.8011 8.57902 12.6103 8.71967 12.4697C8.86032 12.329 9.05109 12.25 9.25 12.25ZM11.5 17C11.5 16.8011 11.579 16.6103 11.7197 16.4697C11.8603 16.329 12.0511 16.25 12.25 16.25H20.75C20.9489 16.25 21.1397 16.329 21.2803 16.4697C21.421 16.6103 21.5 16.8011 21.5 17C21.5 17.1989 21.421 17.3897 21.2803 17.5303C21.1397 17.671 20.9489 17.75 20.75 17.75H12.25C12.0511 17.75 11.8603 17.671 11.7197 17.5303C11.579 17.3897 11.5 17.1989 11.5 17ZM14.5 21C14.5 20.8011 14.579 20.6103 14.7197 20.4697C14.8603 20.329 15.0511 20.25 15.25 20.25H17.75C17.9489 20.25 18.1397 20.329 18.2803 20.4697C18.421 20.6103 18.5 20.8011 18.5 21C18.5 21.1989 18.421 21.3897 18.2803 21.5303C18.1397 21.671 17.9489 21.75 17.75 21.75H15.25C15.0511 21.75 14.8603 21.671 14.7197 21.5303C14.579 21.3897 14.5 21.1989 14.5 21Z" fill="black"/>
<rect x="0.5" y="0.5" width="32" height="33" rx="4.5" stroke="#C1C1C1"/>
</svg>
