<svg width="24" height="24" viewBox="0 0 24 24" fill="none" xmlns="http://www.w3.org/2000/svg">
<g id="Frame" clip-path="url(#clip0_834_834)">
<path id="Vector" d="M21.0199 11.7096C16.217 6.89988 8.42388 6.89438 3.61419 11.6973L2.30784 13.0018C1.96138 13.3478 1.76654 13.8172 1.7662 14.3068C1.76585 14.7965 1.96002 15.2662 2.306 15.6126L3.10146 16.4092C3.40063 16.7088 3.86532 16.7666 4.22867 16.5487L7.4379 14.6265C7.75714 14.4352 7.92971 14.0716 7.87718 13.7043L7.6907 12.3912C7.63643 12.0094 7.82294 11.6306 8.17291 11.469C9.47237 10.8693 10.8867 10.5592 12.3178 10.5602C13.749 10.5612 15.1629 10.8733 16.4615 11.4749C16.8112 11.637 16.9972 12.016 16.9424 12.3977L16.7541 13.7105C16.7004 14.0783 16.8737 14.4422 17.1921 14.6333L20.3986 16.5601C20.575 16.6661 20.7817 16.7101 20.986 16.6851C21.1903 16.6601 21.3803 16.5676 21.526 16.4222L22.3226 15.6268C22.669 15.2808 22.8639 14.8114 22.8642 14.3217C22.8645 13.8321 22.6704 13.3624 22.3244 13.0159L21.0199 11.7096Z" stroke="white" stroke-width="1.5" stroke-linecap="round" stroke-linejoin="round"/>
</g>
<defs>
<clipPath id="clip0_834_834">
<rect width="24" height="24" fill="white"/>
</clipPath>
</defs>
</svg>
