<svg width="24" height="24" viewBox="0 0 24 24" fill="none" xmlns="http://www.w3.org/2000/svg">
<g id="Group 2">
<path id="vector" d="M24 12.2668C24 11.2802 23.9183 10.5601 23.7415 9.81348H12.2446V14.2668H18.993C18.857 15.3736 18.1223 17.0403 16.4896 18.1602L16.4667 18.3093L20.1018 21.0691L20.3536 21.0937C22.6665 19.0003 24 15.9202 24 12.2668Z" fill="#4285F4"/>
<path id="vector_2" d="M12.2432 24.0005C15.5493 24.0005 18.3248 22.9337 20.3522 21.0937L16.4881 18.1602C15.4541 18.8669 14.0663 19.3603 12.2432 19.3603C9.00506 19.3603 6.25673 17.267 5.27703 14.3735L5.13343 14.3855L1.35363 17.2522L1.3042 17.3869C3.31782 21.307 7.45395 24.0005 12.2432 24.0005Z" fill="#34A853"/>
<path id="vector_3" d="M5.27896 14.3738C5.02046 13.6271 4.87085 12.827 4.87085 12.0004C4.87085 11.1736 5.02046 10.3737 5.26536 9.62698L5.25851 9.46796L1.43133 6.55518L1.30612 6.61355C0.476205 8.24027 0 10.067 0 12.0004C0 13.9337 0.476205 15.7604 1.30612 17.3871L5.27896 14.3738Z" fill="#FBBC05"/>
<path id="vector_4" d="M12.2432 4.64006C14.5426 4.64006 16.0936 5.61341 16.978 6.42682L20.4339 3.12006C18.3114 1.1867 15.5494 0 12.2432 0C7.45399 0 3.31783 2.69337 1.3042 6.61342L5.26346 9.62685C6.25676 6.73346 9.0051 4.64006 12.2432 4.64006Z" fill="#EB4335"/>
</g>
</svg>
