<svg width="16" height="20" viewBox="0 0 16 20" fill="none" xmlns="http://www.w3.org/2000/svg">
<path id="Union" fill-rule="evenodd" clip-rule="evenodd" d="M4.3476 1.6451C4.76065 1.23205 5.32086 1 5.905 1C6.48914 1 7.04935 1.23205 7.4624 1.6451C7.87545 2.05815 8.1075 2.61836 8.1075 3.2025V5.2564V6C8.1075 6.27614 8.33136 6.5 8.6075 6.5C8.88364 6.5 9.1075 6.27614 9.1075 6V5.2564V3.2025C9.1075 2.35314 8.77009 1.53858 8.16951 0.937991C7.56892 0.337405 6.75435 0 5.905 0C5.05564 0 4.24107 0.337405 3.64049 0.937991C3.0399 1.53858 2.7025 2.35314 2.7025 3.2025V10.6344C2.7025 11.4837 3.0399 12.2983 3.64049 12.8989C4.20038 13.4588 5.10245 14 6 14C6.27614 14 6.5 13.7761 6.5 13.5C6.5 13.2239 6.27614 13 6 13C5.46405 13 4.80134 12.6455 4.3476 12.1918C3.93455 11.7787 3.7025 11.2185 3.7025 10.6344V3.2025C3.7025 2.61836 3.93455 2.05815 4.3476 1.6451ZM1 9.28312C1 9.00698 0.776142 8.78312 0.5 8.78312C0.223858 8.78312 0 9.00698 0 9.28312V10.6344C0 12.2005 0.622132 13.7024 1.72953 14.8098C2.71847 15.7988 4.02206 16.4007 5.405 16.5182V18.9175H2.52687C2.25073 18.9175 2.02687 19.1414 2.02687 19.4175C2.02687 19.6936 2.25073 19.9175 2.52687 19.9175H5.905H9.28312C9.55927 19.9175 9.78312 19.6936 9.78312 19.4175C9.78312 19.1414 9.55927 18.9175 9.28312 18.9175H6.405V16.0394C6.405 15.7632 6.18114 15.5394 5.905 15.5394C4.60411 15.5394 3.35651 15.0226 2.43664 14.1027C1.51678 13.1829 1 11.9353 1 10.6344V9.28312ZM7.856 6.94531C7.27863 6.94531 6.8103 7.41364 6.8103 7.99101V16.3584C6.8103 16.9357 7.27863 17.4041 7.856 17.4041H14.0406C14.6179 17.4041 15.0863 16.9357 15.0863 16.3584V13.2661V11.9928V11.8109C15.0863 10.5205 14.5736 9.28288 13.6612 8.37041C12.7487 7.45793 11.5111 6.94531 10.2207 6.94531H10.0388H9.12929H7.856ZM14.0863 11.9928V13.2661V16.3584C14.0863 16.3834 14.0656 16.4041 14.0406 16.4041H7.856C7.83092 16.4041 7.8103 16.3834 7.8103 16.3584V7.99101C7.8103 7.96593 7.83092 7.94531 7.856 7.94531H9.12929H10.0388C10.3404 7.94531 10.6296 8.06511 10.8428 8.27836C11.0561 8.4916 11.1759 8.78083 11.1759 9.0824V9.81C11.1759 10.0873 11.286 10.3533 11.4822 10.5494C11.6783 10.7455 11.9442 10.8557 12.2216 10.8557H12.9492C13.2507 10.8557 13.54 10.9755 13.7532 11.1887C13.9665 11.402 14.0863 11.6912 14.0863 11.9928ZM12.1759 9.0824C12.1759 8.85388 12.1393 8.62914 12.0693 8.416C12.3915 8.59145 12.6899 8.8134 12.9541 9.07751C13.2182 9.34163 13.4401 9.64003 13.6156 9.96225C13.4024 9.8923 13.1777 9.8557 12.9492 9.8557H12.2216C12.2095 9.8557 12.1978 9.85088 12.1893 9.84231C12.1807 9.83374 12.1759 9.82212 12.1759 9.81V9.0824ZM9.12929 12.1299C8.85315 12.1299 8.62929 12.3537 8.62929 12.6299C8.62929 12.906 8.85315 13.1299 9.12929 13.1299H10.9483H12.7673C13.0434 13.1299 13.2673 12.906 13.2673 12.6299C13.2673 12.3537 13.0434 12.1299 12.7673 12.1299H10.9483H9.12929ZM9.12929 13.5851C8.85315 13.5851 8.62929 13.8089 8.62929 14.0851C8.62929 14.3612 8.85315 14.5851 9.12929 14.5851H10.9483C11.2244 14.5851 11.4483 14.3612 11.4483 14.0851C11.4483 13.8089 11.2244 13.5851 10.9483 13.5851H9.12929Z" fill="#A6A6A7"/>
</svg>
