<svg width="19" height="19" viewBox="0 0 19 19" fill="none" xmlns="http://www.w3.org/2000/svg">
<path d="M18 9.02779C18.0032 10.2743 17.712 11.504 17.15 12.6167C16.4836 13.95 15.4592 15.0714 14.1915 15.8554C12.9237 16.6394 11.4628 17.055 9.97221 17.0556C8.72567 17.0588 7.49599 16.7676 6.38332 16.2056L1 18L2.79444 12.6167C2.23243 11.504 1.94119 10.2743 1.94444 9.02779C1.94502 7.53723 2.36058 6.07627 3.14456 4.80854C3.92855 3.54081 5.05001 2.51639 6.38332 1.85003C7.49599 1.28802 8.72567 0.996777 9.97221 1.00003H10.4444C12.413 1.10863 14.2723 1.93952 15.6664 3.33361C17.0605 4.7277 17.8914 6.58702 18 8.55557V9.02779Z" stroke="#4C4D4F" stroke-linecap="round" stroke-linejoin="round"/>
</svg>
