<svg width="14" height="14" viewBox="0 0 14 14" fill="none" xmlns="http://www.w3.org/2000/svg">
<path fill-rule="evenodd" clip-rule="evenodd" d="M0.242193 0.17154C0.346671 0.0807767 0.475708 0.0230242 0.612998 0.0055817C0.750287 -0.0118608 0.889666 0.0117897 1.01352 0.0735441L13.6123 6.3733C13.7288 6.43135 13.8267 6.52073 13.8952 6.6314C13.9637 6.74206 14 6.86963 14 6.99978C14 7.12992 13.9637 7.25749 13.8952 7.36816C13.8267 7.47882 13.7288 7.5682 13.6123 7.62625L1.01352 13.926C0.889675 13.988 0.750234 14.0118 0.612839 13.9945C0.475444 13.9772 0.346271 13.9195 0.241664 13.8288C0.137058 13.738 0.0617202 13.6183 0.0251842 13.4847C-0.0113517 13.3511 -0.00744367 13.2097 0.0364137 13.0783L1.82964 7.69975H5.60017C5.7858 7.69975 5.96383 7.626 6.09509 7.49473C6.22636 7.36346 6.3001 7.18542 6.3001 6.99978C6.3001 6.81413 6.22636 6.63609 6.09509 6.50482C5.96383 6.37355 5.7858 6.2998 5.60017 6.2998H1.82964L0.0357137 0.921211C-0.00791776 0.789905 -0.0116566 0.648611 0.0249693 0.51518C0.0615952 0.381749 0.137643 0.262167 0.242193 0.17154Z" fill="white"/>
</svg>
