<svg width="18" height="18" viewBox="0 0 18 18" fill="none" xmlns="http://www.w3.org/2000/svg">
<path d="M17.0313 17.7901C17.4913 18.2501 18.2013 17.5401 17.7413 17.0901L13.9913 13.3301C15.3068 11.8746 16.0339 9.98189 16.0313 8.02006C16.0313 3.63006 12.4613 0.0600586 8.07133 0.0600586C3.68133 0.0600586 0.111328 3.63006 0.111328 8.02006C0.111328 12.4101 3.68133 15.9801 8.07133 15.9801C10.0513 15.9801 11.8813 15.2501 13.2813 14.0401L17.0313 17.7901ZM1.11033 8.02006C1.11033 4.18006 4.24033 1.06006 8.07033 1.06006C11.9103 1.06006 15.0303 4.18006 15.0303 8.02006C15.0303 11.8601 11.9103 14.9801 8.07033 14.9801C4.24033 14.9801 1.11033 11.8601 1.11033 8.02006Z" fill="black"/>
</svg>
